<svg width="193" height="134" viewBox="0 0 193 134" fill="none" xmlns="http://www.w3.org/2000/svg">
<path d="M120 12C109.064 -14.1157 47.5 12 47.5 12C47.5 12 0 33.2665 0 59.5C0 85.7335 21.2665 107 47.5 107C47.5 107 49.7347 107.045 51.1653 107C79.5145 106.099 89.1811 78.0499 106.108 59.5C123.036 40.9501 127.465 29.827 120 12Z" fill="white"/>
<path d="M98.5 127C86.3599 112.149 94.0727 98.0499 111 79.5C127.927 60.9501 120.453 32.8698 142.747 32H145.5C171.723 32.7385 193 53.2665 193 79.5C193 105.734 145.5 127 145.5 127C145.5 127 110.117 141.211 98.5 127Z" fill="white"/>
</svg>
